<svg width="120" height="120" viewBox="0 0 120 120" fill="none" xmlns="http://www.w3.org/2000/svg">
<path d="M60 120C93.1371 120 120 93.1371 120 60C120 26.8629 93.1371 0 60 0C26.8629 0 0 26.8629 0 60C0 93.1371 26.8629 120 60 120Z" fill="#D7384E" fill-opacity="0.1"/>
<path d="M103.657 95.085C101.047 93.0225 97.867 91.5375 94.417 90.8175L77.9695 87.5175C76.2445 87.1875 74.9995 85.6425 74.9995 83.8425V80.07C76.057 78.585 77.0545 76.6125 78.097 74.55C78.907 72.9525 80.1295 70.545 80.737 69.9225C84.067 66.5775 87.2845 62.82 88.282 57.975C89.212 53.43 88.297 51.045 87.2245 49.125C87.2245 44.3325 87.0745 38.3325 85.942 33.9675C85.807 28.0575 84.7345 24.735 82.0345 21.825C80.1295 19.7625 77.3245 19.2825 75.067 18.9C74.182 18.75 72.9595 18.54 72.5095 18.3C68.512 16.14 64.5595 15.0825 59.842 15C49.9645 15.405 37.822 21.69 33.757 32.895C32.497 36.3075 32.6245 41.91 32.7295 46.41L32.632 49.1175C31.6645 51.0075 30.712 53.4075 31.6495 57.9675C32.6395 62.82 35.857 66.585 39.247 69.975C39.802 70.545 41.0545 72.975 41.8795 74.58C42.937 76.635 43.942 78.6 44.9995 80.0775V83.85C44.9995 85.6425 43.747 87.1875 42.0145 87.525L25.552 90.825C22.1245 91.5525 18.9445 93.0225 16.342 95.085C15.532 95.7375 15.022 96.69 14.9395 97.725C14.857 98.76 15.202 99.7725 15.8995 100.545C27.1045 112.905 43.177 120 59.9995 120C76.822 120 92.902 112.912 104.1 100.545C104.797 99.7725 105.15 98.7525 105.06 97.7175C104.977 96.6825 104.467 95.73 103.657 95.085Z" fill="#D7384E"/>
</svg>
