<svg width="100" height="100" viewBox="0 0 100 100" fill="none" xmlns="http://www.w3.org/2000/svg">
<rect width="100" height="100" rx="50" fill="#F5F5F8"/>
<mask id="mask0" mask-type="alpha" maskUnits="userSpaceOnUse" x="0" y="0" width="100" height="100">
<rect width="100" height="100" rx="50" fill="white"/>
</mask>
<g mask="url(#mask0)">
<path fill-rule="evenodd" clip-rule="evenodd" d="M86.3788 88.3987C83.431 84.1346 79.0852 81.0351 74.0935 79.6368L62.4999 76.389V68.056C67.401 64.3743 70.6196 58.5807 70.8174 52.0271C71.5024 52.329 72.2585 52.5001 73.0557 52.5001C76.1238 52.5001 78.6113 50.0129 78.6113 46.9446C78.6113 43.8762 76.1238 41.389 73.0557 41.389C72.2649 41.389 71.5144 41.5565 70.8335 41.8543V40.2779C70.8335 28.7718 61.506 19.4446 50.0002 19.4446H49.9999C38.4941 19.4446 29.1668 28.7718 29.1668 40.2779V41.8543C28.4857 41.5565 27.7352 41.389 26.9446 41.389C23.8763 41.389 21.3891 43.8762 21.3891 46.9446C21.3891 50.0129 23.8763 52.5001 26.9446 52.5001C27.7416 52.5001 28.4977 52.3293 29.183 52.0271C29.3805 58.5807 32.5991 64.3743 37.4999 68.056V76.389L25.9066 79.6368C20.9149 81.0351 16.5691 84.1346 13.6213 88.3987L5.55573 100.067V108.333H94.4446V100.067L86.3788 88.3987Z" fill="#E9ADA1"/>
<path fill-rule="evenodd" clip-rule="evenodd" d="M49.9999 72.2222C47.431 72.2222 44.9722 71.7544 42.6999 70.9041C45.9316 72.9686 49.7694 74.1666 53.8888 74.1666C56.9611 74.1666 59.8747 73.4963 62.4999 72.3027V68.0558C59.018 70.6713 54.6902 72.2222 49.9999 72.2222Z" fill="#DB8B79"/>
<path d="M29.8915 47.7553C29.9623 47.4972 30.0003 47.2253 30.0003 46.9447C30.0003 45.2572 28.6323 43.8892 26.9448 43.8892C26.5228 43.8892 26.1209 43.9747 25.7553 44.1292" stroke="#00004D" stroke-width="2" stroke-linecap="round" stroke-linejoin="round"/>
<path d="M70.1089 47.7553C70.0381 47.4972 70.0003 47.2253 70.0003 46.9447C70.0003 45.2572 71.3683 43.8892 73.0558 43.8892C73.4775 43.8892 73.8795 43.9747 74.2453 44.1292" stroke="#00004D" stroke-width="2" stroke-linecap="round" stroke-linejoin="round"/>
<path fill-rule="evenodd" clip-rule="evenodd" d="M55.5555 59.4469C55.5555 62.5152 53.0683 65.0025 49.9999 65.0025C46.9316 65.0025 44.4444 62.5152 44.4444 59.4469H55.5555Z" fill="white"/>
<path fill-rule="evenodd" clip-rule="evenodd" d="M61.389 47.7779C61.389 49.0051 60.394 50.0001 59.1668 50.0001C57.9396 50.0001 56.9446 49.0051 56.9446 47.7779C56.9446 46.5507 57.9396 45.5557 59.1668 45.5557C60.394 45.5557 61.389 46.5507 61.389 47.7779Z" fill="#00004D"/>
<path fill-rule="evenodd" clip-rule="evenodd" d="M43.0556 47.7779C43.0556 49.0051 42.0606 50.0001 40.8333 50.0001C39.6061 50.0001 38.6111 49.0051 38.6111 47.7779C38.6111 46.5507 39.6061 45.5557 40.8333 45.5557C42.0606 45.5557 43.0556 46.5507 43.0556 47.7779Z" fill="#00004D"/>
<path d="M49.9999 45.5557L52.7777 55.0001L48.8888 55.5557" stroke="#00004D" stroke-width="2" stroke-linecap="round" stroke-linejoin="round"/>
<path fill-rule="evenodd" clip-rule="evenodd" d="M43.4335 31.789C40.5427 36.7282 36.1666 40.6868 30.9222 43.0704C29.9952 42.1188 28.7299 41.5032 27.3208 41.4085L28.0505 36.7888V36.7885C28.5155 33.8438 29.5597 31.0921 31.061 28.6513C32.4477 26.3979 34.2272 24.4146 36.3013 22.789C37.1122 22.1535 37.9669 21.5713 38.8624 21.051C41.3769 19.5915 44.2027 18.6099 47.2166 18.2315C48.1283 18.1171 49.0569 18.0554 49.9999 18.0554C54.0596 18.0554 57.8621 19.1496 61.1374 21.051C64.3244 22.9013 67.0102 25.5168 68.9388 28.6513C70.4402 31.0921 71.4844 33.8438 71.9494 36.7888L72.6783 41.4029C71.2052 41.5026 69.8924 42.1785 68.9558 43.2043C59.0846 42.4393 50.178 38.2368 43.4335 31.789ZM37.5 68.0487C32.6036 64.3662 29.3803 58.5785 29.1828 52.0268C28.4975 52.329 27.7414 52.4999 26.9444 52.4999C26.4783 52.4999 26.0286 52.4365 25.5961 52.3282L22.2222 73.6879H37.5V68.0487ZM73.0556 52.5C72.2586 52.5 71.5022 52.3292 70.8169 52.027C70.6194 58.5786 67.3964 64.3664 62.5 68.0486V73.6878H77.7778L74.4039 52.3284C73.9714 52.4364 73.5217 52.5 73.0556 52.5Z" fill="#00004D"/>
<path fill-rule="evenodd" clip-rule="evenodd" d="M94.4445 100.067L86.3786 88.3986C83.4311 84.1347 79.0853 81.035 74.0933 79.6367L62.5 76.3889C62.5 83.2925 56.9036 88.8889 50 88.8889C43.0964 88.8889 37.5 83.2925 37.5 76.3889L25.9064 79.6367C20.9147 81.035 16.5689 84.1347 13.6211 88.3986L5.55556 100.067V108.333H94.4445V100.067Z" fill="#2384F5"/>
</g>
</svg>
