<svg width="366" height="395" viewBox="0 0 366 395" fill="none" xmlns="http://www.w3.org/2000/svg">
<path d="M346.836 310.39H230.366C220.248 310.39 211.971 302.109 211.971 291.986V18.4046C211.971 8.28126 220.248 -1.52588e-05 230.366 -1.52588e-05H346.836C356.954 -1.52588e-05 365.231 8.28126 365.231 18.4046V291.986C365.231 302.105 356.954 310.39 346.836 310.39Z" fill="#A7ADFF"/>
<path d="M337.111 281.432H240.092C229.973 281.432 221.697 273.151 221.697 263.028V28.835C221.697 18.7117 229.973 10.4304 240.092 10.4304H337.111C347.229 10.4304 355.506 18.7117 355.506 28.835V263.028C355.506 273.147 347.229 281.432 337.111 281.432Z" fill="#E3E5FC"/>
<path d="M303.037 7.09411H274.165C273.461 7.09411 272.888 6.51691 272.888 5.81691C272.888 5.11282 273.465 4.53972 274.165 4.53972H303.037C303.741 4.53972 304.314 5.11691 304.314 5.81691C304.314 6.521 303.737 7.09411 303.037 7.09411Z" fill="#E3E5FC"/>
<path d="M288.599 302.907C292.99 302.907 296.549 299.346 296.549 294.954C296.549 290.561 292.99 287 288.599 287C284.209 287 280.649 290.561 280.649 294.954C280.649 299.346 284.209 302.907 288.599 302.907Z" fill="#E3E5FC"/>
<path d="M325.086 249.093H252.112C245.611 249.093 240.292 243.772 240.292 237.267V232.674C240.292 226.169 245.611 220.848 252.112 220.848H325.086C331.587 220.848 336.906 226.169 336.906 232.674V237.267C336.91 243.772 331.587 249.093 325.086 249.093Z" fill="#F44E4E"/>
<path d="M289.409 85.0683C283.276 83.5332 281.742 65.1286 275.613 65.1286C262.144 66.3525 257.472 84.2087 249.89 97.6028C250.88 103.121 255.725 107.35 261.514 107.35H315.488C321.989 107.35 327.308 102.028 327.308 95.5233V56.8023C325.434 56.9496 323.519 57.6251 321.6 58.9964C310.873 68.1946 303.209 88.1344 289.409 85.0683Z" fill="#A7ADFF"/>
<path d="M315.586 40.8701H261.612C255.111 40.8701 249.792 46.1918 249.792 52.6964V95.5192C249.792 96.2315 249.866 96.9233 249.989 97.6028C257.57 84.2087 262.242 66.3526 275.711 65.1286C281.844 65.1286 283.379 83.5332 289.507 85.0683C303.304 88.1344 310.971 68.1947 321.703 58.9923C323.617 57.621 325.536 56.9496 327.41 56.7982V52.6964C327.41 46.1918 322.087 40.8701 315.586 40.8701Z" fill="white"/>
<path d="M323.605 132.308H253.597C251.719 132.308 250.181 130.769 250.181 128.89C250.181 127.011 251.719 125.472 253.597 125.472H323.605C325.483 125.472 327.021 127.011 327.021 128.89C327.021 130.769 325.483 132.308 323.605 132.308Z" fill="#A7ADFF"/>
<path d="M323.605 147.958H253.597C251.719 147.958 250.181 146.419 250.181 144.54C250.181 142.661 251.719 141.121 253.597 141.121H323.605C325.483 141.121 327.021 142.661 327.021 144.54C327.021 146.419 325.483 147.958 323.605 147.958Z" fill="white"/>
<path d="M323.605 163.603H253.597C251.719 163.603 250.181 162.064 250.181 160.185C250.181 158.306 251.719 156.767 253.597 156.767H323.605C325.483 156.767 327.021 158.306 327.021 160.185C327.021 162.068 325.483 163.603 323.605 163.603Z" fill="white"/>
<path d="M296.266 68.3871C300.024 68.3871 303.07 65.3392 303.07 61.5795C303.07 57.8197 300.024 54.7719 296.266 54.7719C292.509 54.7719 289.462 57.8197 289.462 61.5795C289.462 65.3392 292.509 68.3871 296.266 68.3871Z" fill="#A7ADFF"/>
<path d="M288.014 207.535C287.576 207.179 287.511 206.533 287.867 206.099L297.232 194.592C297.588 194.154 298.234 194.088 298.668 194.444C299.106 194.8 299.171 195.447 298.815 195.881L289.45 207.388C289.094 207.826 288.448 207.892 288.014 207.535Z" fill="white"/>
<path d="M289.188 207.535C289.626 207.179 289.691 206.533 289.335 206.099L279.97 194.592C279.614 194.154 278.968 194.088 278.534 194.444C278.096 194.8 278.031 195.447 278.387 195.881L287.752 207.388C288.104 207.826 288.75 207.892 289.188 207.535Z" fill="white"/>
<path d="M288.599 386.67C327.711 386.67 359.417 381.991 359.417 376.219C359.417 370.447 327.711 365.768 288.599 365.768C249.487 365.768 217.781 370.447 217.781 376.219C217.781 381.991 249.487 386.67 288.599 386.67Z" fill="#E3E5FC"/>
<path d="M89.8962 127.478H12.1105C5.44975 127.478 0 122.025 0 115.361C0 108.696 5.44975 103.244 12.1105 103.244H89.9003C96.5611 103.244 102.011 108.696 102.011 115.361C102.007 122.025 96.557 127.478 89.8962 127.478Z" fill="#E3E5FC"/>
<path d="M90.2072 116.155C89.9945 116.417 89.6017 116.458 89.3398 116.245L82.4131 110.6C82.1513 110.387 82.1104 109.994 82.3231 109.732C82.5359 109.47 82.9286 109.429 83.1905 109.642L90.1172 115.287C90.379 115.5 90.42 115.893 90.2072 116.155Z" fill="white"/>
<path d="M90.2072 115.447C89.9945 115.185 89.6017 115.144 89.3398 115.357L82.4131 121.002C82.1513 121.215 82.1104 121.607 82.3231 121.869C82.5359 122.131 82.9286 122.172 83.1905 121.96L90.1172 116.314C90.379 116.098 90.42 115.709 90.2072 115.447Z" fill="white"/>
<path d="M60.1149 154.442H8.09688C3.64135 154.442 0 150.795 0 146.341C0 141.883 3.64544 138.24 8.09688 138.24H60.1149C64.5704 138.24 68.2118 141.887 68.2118 146.341C68.2159 150.795 64.5704 154.442 60.1149 154.442Z" fill="#A7ADFF"/>
<path d="M60.3236 146.869C60.1804 147.045 59.9185 147.07 59.7426 146.926L55.1111 143.152C54.9351 143.009 54.9106 142.747 55.0538 142.571C55.197 142.395 55.4589 142.37 55.6348 142.513L60.2663 146.288C60.4381 146.431 60.4668 146.693 60.3236 146.869Z" fill="white"/>
<path d="M60.3236 146.394C60.1804 146.218 59.9185 146.193 59.7426 146.337L55.1111 150.111C54.9351 150.254 54.9106 150.516 55.0538 150.692C55.197 150.868 55.4589 150.893 55.6348 150.75L60.2663 146.975C60.4381 146.832 60.4668 146.57 60.3236 146.394Z" fill="white"/>
<path d="M129.857 150.275C129.857 150.275 120.545 162.588 119.984 171.533C119.424 180.477 143.039 184.047 143.039 184.047L129.857 150.275Z" fill="#D4A79A"/>
<path d="M156.181 116.016L155.183 134.609L140.638 140.221C140.638 140.221 149.385 127.416 147.9 116.016C146.423 104.615 156.181 116.016 156.181 116.016Z" fill="#D4A79A"/>
<path d="M169.179 77.9742C169.179 77.9742 172.346 82.1742 169.257 95.0484C166.168 107.927 161.152 118.922 157.273 118.144C146.55 115.999 142.786 108.418 139.067 101.909C134.509 93.9268 143.559 74.4578 143.559 74.4578L152.11 69.8403L169.179 77.9742Z" fill="#EAC2AB"/>
<path d="M180.598 74.5028C181.535 71.4818 179.891 67.6175 177.694 65.7508C176.847 65.0303 175.779 64.5719 174.711 64.6783C173.909 64.7561 173.123 65.145 172.326 65.014C169.936 64.6169 169.65 61.0923 167.432 60.376C165.779 59.8438 164.192 61.342 162.506 61.7391C161.234 62.038 159.916 61.6941 158.636 61.428C155.031 60.6707 151.689 58.9391 147.994 58.4929C144.876 58.1163 141.624 58.4684 138.805 59.983C135.859 61.5631 133.748 64.4695 132.623 67.8262C131.952 69.8321 131.735 72.0672 132.275 74.1221C131.833 72.4315 128.793 74.249 128.298 74.9122C126.363 77.5239 126.036 83.1853 127.062 86.2227C127.877 88.6297 129.215 90.7584 129.959 93.1981C130.843 96.1087 131.211 99.3385 132.823 101.917C134.668 104.877 138.334 106.384 141.489 105.565C140.515 102.888 139.549 100.149 139.369 97.2753C139.189 94.4017 135.388 81.4128 149.537 78.6087C155.162 77.4952 161.938 82.1865 167.571 82.4116C170.247 82.518 172.927 81.9982 175.435 80.9789C177.374 80.1929 179.261 77.2987 180.328 75.1824C180.439 74.9654 180.529 74.7403 180.598 74.5028Z" fill="#4B369D"/>
<path d="M139.39 87.9093C139.39 87.9093 135.438 83.4432 135.871 90.259C136.305 97.0748 139.873 98.483 139.873 98.483L139.39 87.9093Z" fill="#EAC2AB"/>
<path d="M105.677 349.05L97.1094 371.556L89.2948 369.465L99.6296 346.512C99.6256 346.512 104.057 347.04 105.677 349.05Z" fill="#D4A79A"/>
<path d="M117.128 392.544C116.85 393.011 114.084 392.823 113.671 392.827C109.404 392.888 102.845 393.199 99.1754 390.731C95.5996 388.324 93.3002 384.189 90.1417 381.291C87.92 379.252 85.0847 378.016 82.458 376.571C79.5572 374.975 85.457 361.736 88.9756 363.877C91.8232 365.613 90.4239 370.41 97.6862 369.788C103.909 369.252 99.9569 378.143 107.195 383.44C113.594 388.123 120.181 387.427 117.128 392.544Z" fill="#F3AA02"/>
<path d="M121.486 268.693C118.008 287.626 110.75 304.856 99.9733 320.747C94.7159 328.496 89.0902 335.967 83.6446 343.585C75.8791 354.449 102.199 356.992 108.68 358.952C112.919 360.234 119.223 360.561 118.941 357.29C118.859 356.328 118.119 355.383 117.509 354.458C111.957 345.972 116.809 337.424 120.651 329.818C132.16 307.013 139.93 280.72 148.96 256.957C152.396 247.91 150.85 238.999 151.349 229.076C151.656 223.001 141.129 196.241 129.628 202.836C122.472 206.942 126.436 222.547 127.202 228.818C127.733 233.153 128.666 237.881 127.954 242.249C126.498 251.197 123.131 259.749 121.486 268.693Z" fill="#4B369D"/>
<path d="M149.516 356.623L154.839 380.853L146.926 383.465L142.872 357.851C142.876 357.855 146.992 355.808 149.516 356.623Z" fill="#EAC2AB"/>
<path d="M187.247 390.403C187.247 390.403 181.327 392.425 169.977 393.269C158.628 394.112 145.961 394.533 143.661 392.847C141.358 391.16 139.877 376.837 143.661 376.837C147.446 376.837 148.915 382.314 155.588 377.427C161.303 373.239 165.869 381.135 175.82 383.239C185.766 385.348 189.796 386.191 187.247 390.403Z" fill="#FDC510"/>
<path d="M170.124 363.41C169.744 362.522 168.746 361.859 167.878 361.167C159.953 354.846 161.888 345.206 163.157 336.782C166.164 316.797 162.944 296.652 161.741 276.663C160.571 257.153 162.523 237.574 166.978 218.555C168.598 211.645 170.832 200.961 160.15 202.983C155.089 203.941 150.093 203.753 145.048 202.869C142.393 202.402 145.101 201.538 142.393 202.402C133.167 205.349 129.718 222.796 131.612 228.875C135.384 240.98 136.612 252.597 137.225 265.414C138.093 283.59 141.116 301.786 138.96 319.822C137.905 328.66 136.677 337.473 135.499 346.295C134.812 351.441 130.511 362.714 133.396 367.373C137.356 373.767 155.003 368.347 160.898 368.204C165.325 368.089 171.413 366.427 170.124 363.41Z" fill="#5A54FF"/>
<path d="M162.269 169.203C159.593 158.339 162.498 140.065 154.843 132.005C154.057 131.178 153.227 130.364 152.188 129.893C142.569 125.558 136.767 133.458 132.631 140.307C128.49 147.164 128.584 154.581 126.563 162.269C124.264 171.009 124.726 180.096 124.563 189.119C124.46 194.612 125.131 200.069 124.82 205.571C124.604 209.41 124.059 213.226 123.184 216.967C122.603 219.456 119.35 224.397 120.299 226.931C121.052 228.937 124.497 228.179 126.191 228.237C132.741 228.454 139.161 226.509 144.987 223.627C150.31 220.995 154.974 216.914 161.111 216.406C164.159 216.152 173.758 217.405 172.379 211.858C169.11 198.722 165.382 187.522 164.028 178.246C163.59 175.245 163.009 172.216 162.269 169.203Z" fill="#D7384E"/>
<path d="M175.64 178.295C175.64 178.295 186.871 190.727 188.699 188.963C190.528 187.199 224.115 151.294 225.796 147.385C227.478 143.475 231.5 132.169 231.078 129.889C230.657 127.609 229.589 127.854 234.04 127.048C238.492 126.241 246.953 126.049 246.265 127.776C245.578 129.504 242.059 129.651 242.059 129.651C242.059 129.651 246.617 130.769 244.895 131.694C243.172 132.619 237.44 133.393 237.997 135.051C238.553 136.709 239.384 140.507 239.081 143.721C238.778 146.934 237.538 148.388 233.815 150.68C230.092 152.968 229.437 151.376 227.269 155.907C225.101 160.439 192.153 199.811 190.05 201.44C187.947 203.069 187.398 204.866 182.726 200.56C178.054 196.254 169.826 185.594 163.243 178.7C157.204 172.38 154.72 163.481 154.72 163.481L164.491 162.04C164.491 162.04 165.636 168.819 175.64 178.295Z" fill="#EAC2AB"/>
<path d="M168.418 162.31C168.418 162.31 160.669 137.204 150.666 141.998C140.662 146.791 154.724 173.604 154.724 173.604L170.984 165.519L168.418 162.31Z" fill="#F44E4E"/>
</svg>
