<svg width="100" height="100" viewBox="0 0 100 100" fill="none" xmlns="http://www.w3.org/2000/svg">
<path fill-rule="evenodd" clip-rule="evenodd" d="M50 100C77.6142 100 100 77.6142 100 50C100 22.3858 77.6142 0 50 0C22.3858 0 0 22.3858 0 50C0 77.6142 22.3858 100 50 100Z" fill="#F5F5F8"/>
<mask id="mask0" mask-type="alpha" maskUnits="userSpaceOnUse" x="0" y="0" width="100" height="100">
<path fill-rule="evenodd" clip-rule="evenodd" d="M50 100C77.6142 100 100 77.6142 100 50C100 22.3858 77.6142 0 50 0C22.3858 0 0 22.3858 0 50C0 77.6142 22.3858 100 50 100Z" fill="white"/>
</mask>
<g mask="url(#mask0)">
<path fill-rule="evenodd" clip-rule="evenodd" d="M86.3788 88.3987C83.431 84.1346 79.0852 81.0351 74.0935 79.6368L62.4999 76.389V68.056C67.401 64.3743 70.6196 58.5807 70.8174 52.0271C71.5024 52.329 72.2585 52.5001 73.0557 52.5001C76.1238 52.5001 78.6113 50.0129 78.6113 46.9446C78.6113 43.8762 76.1238 41.389 73.0557 41.389C72.2649 41.389 71.5143 41.5565 70.8335 41.8543V40.2779C70.8335 28.7718 61.506 19.4446 50.0002 19.4446H49.9999C38.494 19.4446 29.1668 28.7718 29.1668 40.2779V41.8543C28.4857 41.5565 27.7352 41.389 26.9446 41.389C23.8763 41.389 21.3891 43.8762 21.3891 46.9446C21.3891 50.0129 23.8763 52.5001 26.9446 52.5001C27.7416 52.5001 28.4977 52.3293 29.1829 52.0271C29.3804 58.5807 32.5991 64.3743 37.4999 68.056V76.389L25.9066 79.6368C20.9149 81.0351 16.5691 84.1346 13.6213 88.3987L5.55573 100.067V108.333H94.4446V100.067L86.3788 88.3987Z" fill="#FFCF83"/>
<path fill-rule="evenodd" clip-rule="evenodd" d="M49.9999 72.2222C47.431 72.2222 44.9721 71.7544 42.6999 70.9041C45.9316 72.9686 49.7693 74.1666 53.8888 74.1666C56.961 74.1666 59.8746 73.4963 62.4999 72.3027V68.0558C59.0179 70.6713 54.6902 72.2222 49.9999 72.2222Z" fill="#F7A74F"/>
<path d="M29.8914 47.7553C29.9622 47.4972 30.0003 47.2253 30.0003 46.9447C30.0003 45.2572 28.6322 43.8892 26.9448 43.8892C26.5228 43.8892 26.1209 43.9747 25.7553 44.1292" stroke="#00004D" stroke-width="2" stroke-linecap="round" stroke-linejoin="round"/>
<path d="M70.1089 47.7553C70.038 47.4972 70.0002 47.2253 70.0002 46.9447C70.0002 45.2572 71.3683 43.8892 73.0558 43.8892C73.4775 43.8892 73.8794 43.9747 74.2453 44.1292" stroke="#00004D" stroke-width="2" stroke-linecap="round" stroke-linejoin="round"/>
<path fill-rule="evenodd" clip-rule="evenodd" d="M55.5555 59.4469C55.5555 62.5152 53.0683 65.0025 50 65.0025C46.9316 65.0025 44.4444 62.5152 44.4444 59.4469H55.5555Z" fill="white"/>
<path fill-rule="evenodd" clip-rule="evenodd" d="M61.3891 47.7779C61.3891 49.0051 60.3941 50.0001 59.1669 50.0001C57.9396 50.0001 56.9446 49.0051 56.9446 47.7779C56.9446 46.5507 57.9396 45.5557 59.1669 45.5557C60.3941 45.5557 61.3891 46.5507 61.3891 47.7779Z" fill="#00004D"/>
<path fill-rule="evenodd" clip-rule="evenodd" d="M43.0556 47.7779C43.0556 49.0051 42.0606 50.0001 40.8334 50.0001C39.6061 50.0001 38.6111 49.0051 38.6111 47.7779C38.6111 46.5507 39.6061 45.5557 40.8334 45.5557C42.0606 45.5557 43.0556 46.5507 43.0556 47.7779Z" fill="#00004D"/>
<path d="M50 45.5557L52.7778 55.0001L48.8889 55.5557" stroke="#00004D" stroke-width="2" stroke-linecap="round" stroke-linejoin="round"/>
<path fill-rule="evenodd" clip-rule="evenodd" d="M72.2222 41.4581V40.2778C72.2222 36.015 71.0197 32.0339 68.9389 28.6514C67.0103 25.5167 64.3242 22.9011 61.1375 21.0511C57.8622 19.1494 54.0597 18.0555 50 18.0555C45.94 18.0555 42.1378 19.1494 38.8625 21.0511C35.6758 22.9011 32.9897 25.5167 31.0611 28.6514C28.9803 32.0339 27.7778 36.015 27.7778 40.2778V41.4581C28.9367 41.6331 29.9775 42.1622 30.7855 42.9367C33.345 40.3678 35.4061 37.3028 36.8083 33.8953C40.7328 36.0172 45.2255 37.2222 50 37.2222C54.7744 37.2222 59.2672 36.0172 63.1917 33.8953C64.5936 37.3028 66.6553 40.3678 69.2144 42.9367C70.0225 42.1622 71.0633 41.6331 72.2222 41.4581Z" fill="#00004D"/>
<path fill-rule="evenodd" clip-rule="evenodd" d="M94.4444 100.067L86.3786 88.3986C83.4311 84.1347 79.0853 81.035 74.0933 79.6367L62.5 76.3889C62.5 83.2925 56.9036 88.8889 50 88.8889C43.0964 88.8889 37.5 83.2925 37.5 76.3889L25.9064 79.6367C20.9147 81.035 16.5689 84.1347 13.6211 88.3986L5.55554 100.067V108.333H94.4444V100.067Z" fill="#FB344F"/>
</g>
</svg>
