<svg width="40" height="40" viewBox="0 0 40 40" fill="none" xmlns="http://www.w3.org/2000/svg">
<path d="M20 40C31.0457 40 40 31.0457 40 20C40 8.9543 31.0457 0 20 0C8.9543 0 0 8.9543 0 20C0 31.0457 8.9543 40 20 40Z" fill="#D7384E" fill-opacity="0.1"/>
<path d="M34.5523 31.695C33.6823 31.0075 32.6223 30.5125 31.4723 30.2725L25.9898 29.1725C25.4148 29.0625 24.9998 28.5475 24.9998 27.9475V26.69C25.3523 26.195 25.6848 25.5375 26.0323 24.85C26.3023 24.3175 26.7098 23.515 26.9123 23.3075C28.0223 22.1925 29.0948 20.94 29.4273 19.325C29.7373 17.81 29.4323 17.015 29.0748 16.375C29.0748 14.7775 29.0248 12.7775 28.6473 11.3225C28.6023 9.3525 28.2448 8.245 27.3448 7.275C26.7098 6.5875 25.7748 6.4275 25.0223 6.3C24.7273 6.25 24.3198 6.18 24.1698 6.1C22.8373 5.38 21.5198 5.0275 19.9473 5C16.6548 5.135 12.6073 7.23 11.2523 10.965C10.8323 12.1025 10.8748 13.97 10.9098 15.47L10.8773 16.3725C10.5548 17.0025 10.2373 17.8025 10.5498 19.3225C10.8798 20.94 11.9523 22.195 13.0823 23.325C13.2673 23.515 13.6848 24.325 13.9598 24.86C14.3123 25.545 14.6473 26.2 14.9998 26.6925V27.95C14.9998 28.5475 14.5823 29.0625 14.0048 29.175L8.51733 30.275C7.37483 30.5175 6.31483 31.0075 5.44733 31.695C5.17733 31.9125 5.00733 32.23 4.97983 32.575C4.95233 32.92 5.06733 33.2575 5.29983 33.515C9.03483 37.635 14.3923 40 19.9998 40C25.6073 40 30.9673 37.6375 34.6998 33.515C34.9323 33.2575 35.0498 32.9175 35.0198 32.5725C34.9923 32.2275 34.8223 31.91 34.5523 31.695Z" fill="#D7384E"/>
</svg>
