<svg width="109" height="29" viewBox="0 0 109 29" fill="none" xmlns="http://www.w3.org/2000/svg">
<path d="M42.9 17.994H36.636L35.34 21H33L38.796 8.184H40.686L46.5 21H44.178L42.9 17.994ZM42.126 16.194L39.768 10.704L37.41 16.194H42.126ZM50.3399 13.602V17.67C50.3399 18.738 50.8379 19.272 51.8339 19.272C52.1099 19.272 52.4099 19.224 52.7339 19.128V20.91C52.3379 21.054 51.8579 21.126 51.2939 21.126C50.2619 21.126 49.4699 20.838 48.9179 20.262C48.3659 19.686 48.0899 18.858 48.0899 17.778V13.602H46.3439V11.91H48.0899V9.696L50.3399 8.94V11.91H52.7519V13.602H50.3399ZM57.0372 13.602V17.67C57.0372 18.738 57.5352 19.272 58.5312 19.272C58.8072 19.272 59.1072 19.224 59.4312 19.128V20.91C59.0352 21.054 58.5552 21.126 57.9912 21.126C56.9592 21.126 56.1672 20.838 55.6152 20.262C55.0632 19.686 54.7872 18.858 54.7872 17.778V13.602H53.0412V11.91H54.7872V9.696L57.0372 8.94V11.91H59.4492V13.602H57.0372ZM68.9515 16.572H62.6875C62.7355 17.544 62.9755 18.264 63.4075 18.732C63.8515 19.188 64.5055 19.416 65.3695 19.416C66.3655 19.416 67.2895 19.092 68.1415 18.444L68.7895 19.992C68.3575 20.34 67.8235 20.622 67.1875 20.838C66.5635 21.042 65.9275 21.144 65.2795 21.144C63.7915 21.144 62.6215 20.724 61.7695 19.884C60.9175 19.044 60.4915 17.892 60.4915 16.428C60.4915 15.504 60.6775 14.682 61.0495 13.962C61.4215 13.242 61.9435 12.684 62.6155 12.288C63.2875 11.88 64.0495 11.676 64.9015 11.676C66.1495 11.676 67.1335 12.084 67.8535 12.9C68.5855 13.704 68.9515 14.814 68.9515 16.23V16.572ZM64.9555 13.296C64.3555 13.296 63.8635 13.476 63.4795 13.836C63.1075 14.184 62.8675 14.694 62.7595 15.366H66.9895C66.9175 14.682 66.7075 14.166 66.3595 13.818C66.0235 13.47 65.5555 13.296 64.9555 13.296ZM76.0588 11.676C78.2308 11.676 79.3168 12.924 79.3168 15.42V21H77.0668V15.528C77.0668 14.808 76.9288 14.286 76.6528 13.962C76.3768 13.626 75.9508 13.458 75.3748 13.458C74.6908 13.458 74.1388 13.68 73.7188 14.124C73.2988 14.556 73.0888 15.132 73.0888 15.852V21H70.8568V14.484C70.8568 13.524 70.8088 12.666 70.7128 11.91H72.8188L72.9808 13.404C73.2928 12.852 73.7128 12.426 74.2408 12.126C74.7808 11.826 75.3868 11.676 76.0588 11.676ZM90.3965 7.752V21H88.1825V19.542C87.9065 20.046 87.5105 20.442 86.9945 20.73C86.4785 21.006 85.8905 21.144 85.2305 21.144C84.4505 21.144 83.7545 20.946 83.1425 20.55C82.5305 20.154 82.0505 19.596 81.7025 18.876C81.3665 18.144 81.1985 17.31 81.1985 16.374C81.1985 15.438 81.3665 14.616 81.7025 13.908C82.0385 13.2 82.5125 12.654 83.1245 12.27C83.7365 11.874 84.4385 11.676 85.2305 11.676C85.8785 11.676 86.4545 11.814 86.9585 12.09C87.4745 12.354 87.8705 12.732 88.1465 13.224V7.752H90.3965ZM85.8245 19.38C86.5685 19.38 87.1445 19.122 87.5525 18.606C87.9725 18.09 88.1825 17.358 88.1825 16.41C88.1825 15.462 87.9785 14.73 87.5705 14.214C87.1625 13.698 86.5865 13.44 85.8425 13.44C85.0865 13.44 84.4985 13.698 84.0785 14.214C83.6705 14.718 83.4665 15.438 83.4665 16.374C83.4665 17.322 83.6705 18.06 84.0785 18.588C84.4985 19.116 85.0805 19.38 85.8245 19.38ZM100.803 16.572H94.539C94.587 17.544 94.827 18.264 95.259 18.732C95.703 19.188 96.357 19.416 97.221 19.416C98.217 19.416 99.141 19.092 99.993 18.444L100.641 19.992C100.209 20.34 99.675 20.622 99.039 20.838C98.415 21.042 97.779 21.144 97.131 21.144C95.643 21.144 94.473 20.724 93.621 19.884C92.769 19.044 92.343 17.892 92.343 16.428C92.343 15.504 92.529 14.682 92.901 13.962C93.273 13.242 93.795 12.684 94.467 12.288C95.139 11.88 95.901 11.676 96.753 11.676C98.001 11.676 98.985 12.084 99.705 12.9C100.437 13.704 100.803 14.814 100.803 16.23V16.572ZM96.807 13.296C96.207 13.296 95.715 13.476 95.331 13.836C94.959 14.184 94.719 14.694 94.611 15.366H98.841C98.769 14.682 98.559 14.166 98.211 13.818C97.875 13.47 97.407 13.296 96.807 13.296ZM107.604 11.694C107.952 11.694 108.252 11.742 108.504 11.838L108.486 13.89C108.102 13.734 107.706 13.656 107.298 13.656C106.53 13.656 105.942 13.878 105.534 14.322C105.138 14.766 104.94 15.354 104.94 16.086V21H102.708V14.484C102.708 13.524 102.66 12.666 102.564 11.91H104.67L104.85 13.512C105.078 12.924 105.438 12.474 105.93 12.162C106.422 11.85 106.98 11.694 107.604 11.694Z" fill="#D7384E"/>
<path d="M4 23.5C4 22.837 4.26339 22.2011 4.73223 21.7322C5.20107 21.2634 5.83696 21 6.5 21H20" stroke="#D7384E" stroke-width="2" stroke-linecap="round" stroke-linejoin="round"/>
<path d="M6.5 6H20V26H6.5C5.83696 26 5.20107 25.7366 4.73223 25.2678C4.26339 24.7989 4 24.163 4 23.5V8.5C4 7.83696 4.26339 7.20107 4.73223 6.73223C5.20107 6.26339 5.83696 6 6.5 6V6Z" stroke="#D7384E" stroke-width="2" stroke-linecap="round" stroke-linejoin="round"/>
</svg>
