<svg width="405" height="299" viewBox="0 0 405 299" fill="none" xmlns="http://www.w3.org/2000/svg">
<path d="M261.612 132.443C261.612 132.443 281.321 164.028 300.156 181.43C318.991 198.831 340.915 216.658 327.638 249.393C314.36 282.129 275.226 295.536 205.244 293.825C135.263 292.114 110.554 291.741 95.2061 257.024C79.8584 222.307 130.938 214.521 165.83 203.967C200.722 193.412 261.612 132.443 261.612 132.443Z" fill="#E3E5FC"/>
<path opacity="0.49" d="M264.977 201.395C264.977 201.395 274.576 238.446 240.354 247.241C206.131 256.039 142.275 254.743 118.234 237.626C94.1941 220.508 264.977 201.395 264.977 201.395Z" fill="url(#paint0_linear)"/>
<path d="M354.068 265.536C357.456 263.449 359.071 258.877 357.746 255.126C355.577 248.995 349.97 251.061 345.985 247.841C341.291 244.05 346.967 238.087 346.654 233.611C346.311 228.686 341.878 223.929 340.543 219.169C337.48 208.229 349.917 216.394 353.464 215.118C354.948 214.584 355.92 213.094 356.263 211.552C357.133 207.619 355.478 204.441 357.631 200.72C359.711 197.127 362.783 195.505 361.896 190.626C361.395 187.864 359.691 185.332 359.734 182.524C359.747 181.72 359.975 180.816 360.677 180.424C361.211 180.124 361.877 180.207 362.453 180.408C364.369 181.08 365.628 182.867 367.171 184.189C368.713 185.51 371.192 186.328 372.672 184.937C373.658 184.011 373.753 182.514 373.954 181.176C374.314 178.763 376.008 177.088 378.111 178.483C380.402 180.002 379.525 185.985 379.179 188.131C378.632 191.533 377.801 195.067 378.813 198.363C380.484 203.815 385.053 197.707 387.044 195.901C388.676 194.42 391.402 193.534 392.968 195.08C396.086 198.155 391.072 202.266 390.413 205.18C390.097 206.567 390.505 208.229 391.738 208.941C395.348 211.031 398.397 207.306 398.944 212.867C399.32 216.677 395.872 220.31 398.011 224.12C399.88 227.45 406.1 228.864 403.641 233.535C402.131 236.403 395.631 236.274 395.974 240.355C396.198 243.015 400.197 244.222 400.2 246.892C400.203 248.902 397.863 250.089 395.855 250.191C393.848 250.293 391.732 249.825 389.882 250.61C387.782 251.5 386.566 254.081 387.216 256.27C387.783 258.172 389.553 259.902 388.996 261.808C388.326 264.098 385.152 264.181 382.795 263.815C373.163 262.309 362.849 261.303 354.068 265.536Z" fill="#FDC510"/>
<path d="M372.257 264.586C371.914 264.586 371.64 264.309 371.64 263.97V220.996C371.64 220.656 371.917 220.379 372.257 220.379C372.6 220.379 372.873 220.656 372.873 220.996V263.967C372.873 264.309 372.6 264.586 372.257 264.586Z" fill="white"/>
<path d="M372.257 247.861C372.118 247.861 371.983 247.815 371.868 247.722C371.604 247.508 371.561 247.119 371.779 246.852L383.049 232.958C383.267 232.691 383.656 232.655 383.919 232.869C384.183 233.083 384.226 233.472 384.008 233.739L372.738 247.633C372.613 247.782 372.438 247.861 372.257 247.861Z" fill="white"/>
<path d="M372.257 236.126C372.115 236.126 371.973 236.08 371.858 235.981L358.425 224.678C358.165 224.457 358.132 224.068 358.35 223.807C358.57 223.547 358.959 223.514 359.22 223.732L372.652 235.035C372.913 235.256 372.946 235.645 372.728 235.905C372.606 236.053 372.432 236.126 372.257 236.126Z" fill="white"/>
<path d="M352.189 259.513C353.956 271.258 355.548 283.544 358.521 294.876C358.768 295.819 359.058 296.808 359.658 297.415C360.367 298.13 361.329 298.143 362.216 298.123C367.345 298.005 372.484 298.334 377.613 298.305C382.462 298.278 386.467 298.67 386.975 290.617C387.15 287.825 387.591 259.51 390.166 259.51C390.156 259.513 352.189 259.513 352.189 259.513Z" fill="#978CFF"/>
<path d="M386.698 266.531H355.656C351.796 266.531 348.635 263.373 348.635 259.51C348.635 255.65 351.793 252.489 355.656 252.489H386.698C390.558 252.489 393.719 255.647 393.719 259.51C393.719 263.373 390.558 266.531 386.698 266.531Z" fill="#A7ADFF"/>
<path d="M237.064 8.69148C237.064 8.69148 241.132 17.73 234.776 23.2943C228.421 28.8585 219.781 24.4546 211.395 29.5507C203.01 34.6468 203.913 40.6857 207.76 54.1315C212.335 70.1253 217.332 69.6474 221.825 70.8044C226.318 71.9647 227.66 84.4809 228.167 90.2759C228.675 96.0708 229.436 100.01 213.426 107.891C197.416 115.773 206.151 127.828 207.756 143.452C209.533 160.735 189.027 170.703 185.47 174.876C181.913 179.05 173.524 179.745 168.949 170.937C164.373 162.129 187.622 155.646 185.592 141.508C183.558 127.37 171.144 117.856 188.68 103.949C206.217 90.0418 202.752 78.92 196.908 67.5641C191.064 56.2082 188.268 51.8043 193.094 37.2015C197.92 22.5987 192.84 27.0026 199.192 15.4127C205.551 3.82608 228.678 -8.92415 237.064 8.69148Z" fill="#4B369D"/>
<path d="M226.005 77.2916L227.281 101.088L245.908 108.271C245.908 108.271 234.707 91.8812 236.606 77.2883C238.505 62.6987 226.005 77.2916 226.005 77.2916Z" fill="#D4A79A"/>
<path d="M269.174 154.488C269.174 154.488 267.938 152.224 264.232 140.594C260.527 128.965 259.189 124.64 254.043 113.386C248.898 102.133 238.191 95.1017 238.191 95.1017L224.812 94.3798C224.812 94.3798 223.163 94.482 215.447 100.864C207.727 107.245 200.316 125.464 200.316 125.464L197.023 161.694L220.184 178.779L236.553 184.68C235.765 183.628 235.129 182.514 234.734 181.334C231.991 173.182 241.181 128.035 241.491 124.02C241.801 120.006 249.577 158.296 249.577 158.296L256.311 156.341L260.933 171.066L263.824 156.031L269.174 154.488Z" fill="#F44E4E"/>
<path d="M261.866 174.046L260.93 171.066L259.436 178.832L261.866 174.046Z" fill="url(#paint1_linear)"/>
<path d="M249.57 158.296C249.57 158.296 241.794 120.006 241.484 124.02C241.175 128.035 231.984 173.182 234.727 181.334C235.123 182.514 235.759 183.628 236.547 184.68L253.388 190.748L259.436 178.829L260.93 171.063L256.308 156.338L249.57 158.296Z" fill="#FDC510"/>
<path d="M249.57 158.296C249.57 158.296 241.794 120.006 241.484 124.02C241.175 128.035 231.984 173.182 234.727 181.334C235.123 182.514 235.759 183.628 236.547 184.68L253.388 190.748L259.436 178.829L260.93 171.063L256.308 156.338L249.57 158.296Z" fill="#D7384E"/>
<path d="M113.095 143.897L207.654 148.46L226.005 166.233L137.683 164.008L113.095 143.897Z" fill="black"/>
<path d="M202.261 151.327L116.893 145.562C114.585 145.74 112.584 144.188 112.423 142.088L95.2193 95.9324C95.0578 93.836 96.795 91.99 99.0991 91.812L184.468 97.5806C186.775 97.4026 188.776 98.9552 188.938 101.055L206.141 147.21C206.306 149.303 204.565 151.149 202.261 151.327Z" fill="#E3E5FC"/>
<path d="M159.434 125.443C160.448 120.776 156.857 116.034 151.413 114.851C145.969 113.668 140.734 116.492 139.72 121.158C138.706 125.824 142.297 130.566 147.74 131.75C153.184 132.933 158.419 130.109 159.434 125.443Z" fill="#A7ADFF"/>
<path d="M74.1953 225.858L50.0562 261.211L61.0462 270.497L84.0415 232.114C84.0415 232.111 78.7706 226.181 74.1953 225.858Z" fill="#D4A79A"/>
<path d="M1.16823 280.93C1.16823 280.93 10.454 284.101 28.2477 285.419C46.0413 286.741 65.9017 287.4 69.5112 284.76C73.1207 282.12 75.4413 259.668 69.5112 259.668C63.5811 259.668 61.2737 268.252 50.8144 260.591C41.8549 254.028 34.6953 266.403 19.0937 269.702C3.49214 273.002 -2.82693 274.327 1.16823 280.93Z" fill="#F3AA02"/>
<path d="M224.452 187.63C222.32 183.618 210.776 185.88 196.941 180.734C183.103 175.589 174.167 164.78 158.446 152.326C142.726 139.873 143.801 142.032 137.017 141.518C130.233 141.003 121.834 159.324 117.094 169.002C107.116 189.38 94.4876 207.589 75.6226 219.436C69.8903 223.036 44.6337 236.729 40.4144 242.465C31.5275 254.536 75.2205 254.638 86.6456 256.032C97.9553 257.41 104.297 250.986 108.873 240.833C114.094 229.253 119.807 217.92 125.513 206.587C128.367 200.918 131.235 195.251 134.034 189.552C135.24 187.096 137.851 178.183 140.762 177.072C149.714 173.663 161.532 200.954 164.044 207.085C169.104 219.436 187.626 233.848 201.085 235.288C214.544 236.729 224.667 227.776 229.08 214.703C233.497 201.63 224.452 187.63 224.452 187.63Z" fill="#4B369D"/>
<path d="M120.242 228.538L96.1028 263.891L107.093 273.177L130.088 234.794C130.085 234.791 124.817 228.861 120.242 228.538Z" fill="#EAC2AB"/>
<path d="M47.2148 283.61C47.2148 283.61 56.5006 286.781 74.2942 288.099C92.0879 289.421 111.948 290.08 115.558 287.44C119.167 284.8 121.488 262.348 115.558 262.348C109.628 262.348 107.32 270.932 96.861 263.271C87.9015 256.708 80.7419 269.083 65.1403 272.382C49.5387 275.682 43.2163 277.007 47.2148 283.61Z" fill="#FDC510"/>
<path d="M259.393 187.63C257.356 183.618 246.32 185.88 233.095 180.734C219.87 175.589 211.326 164.78 196.298 152.326C181.27 139.873 182.299 142.032 175.815 141.518C169.331 141.003 161.301 159.324 156.772 169.002C142.838 198.772 114.163 218.751 88.0663 237.131C86.4445 238.272 84.6249 239.857 84.9611 241.812C85.1326 242.807 85.8446 243.612 86.5731 244.314C96.2544 253.659 114.391 257.862 127.425 257.252C140.547 256.639 147.671 245.688 152.628 234.86C161.496 215.487 170.158 195.525 180.931 177.138C184.979 170.235 197.881 198.102 199.001 200.697C205.683 216.19 218.947 233.261 237.061 235.288C249.926 236.729 259.601 227.776 263.824 214.703C268.04 201.63 259.393 187.63 259.393 187.63Z" fill="#5A54FF"/>
<path d="M209.362 26.6368C209.362 26.6368 199.413 33.9745 203.372 50.4562C207.331 66.9379 219.643 81.0132 224.611 80.021C238.346 77.2785 243.162 67.5708 247.926 59.2409C253.767 49.0256 242.17 24.1052 242.17 24.1052L231.216 18.1982L209.362 26.6368Z" fill="#EAC2AB"/>
<path d="M229.186 19.3552C229.186 19.3552 236.098 21.6725 242.173 31.4066C248.249 41.1407 244.263 42.7295 244.263 55.7797C244.263 59.5936 243.548 63.3514 241.481 66.6016C239.981 68.9618 237.842 70.8209 236.289 73.1349C234.328 76.0555 233.702 79.3518 233.86 82.836C234.193 90.2034 235.37 96.3214 241.913 100.481C248.987 104.978 252.287 110.983 254.146 119.099C256.371 128.817 272.391 134.315 277.982 130.607C283.572 126.898 266.896 129.374 270.202 113.383C273.505 97.3894 274.639 90.6022 264.981 86.1588C255.323 81.7153 259.937 80.5418 265.02 70.8077C270.103 61.0736 257 61.1923 262.172 44.2491C268.142 24.6919 262.733 2.89654 233.504 8.92225C204.275 14.948 229.186 19.3552 229.186 19.3552Z" fill="#4B369D"/>
<path d="M222.069 37.9663C230.455 32.8669 228.424 28.8552 234.78 23.2943C241.132 17.7301 237.067 8.69151 237.067 8.69151C228.682 -8.92413 205.554 3.82281 199.199 15.4127C192.844 27.0027 197.93 22.5988 193.101 37.2015C189.772 47.2653 190.068 52.4867 192.488 58.4794L206.158 64.014C200.623 43.0163 215.76 41.7999 222.069 37.9663Z" fill="#4B369D"/>
<path d="M256.1 173.426C256.1 173.426 256.101 179.086 253.938 178.057C251.776 177.029 231.5 164.368 228.823 161.385C226.147 158.398 219.867 147.593 219.561 145.43C219.251 143.268 220.282 143.166 216.06 143.782C211.841 144.399 204.223 146.769 205.357 148.104C206.487 149.442 209.678 148.516 209.678 148.516C209.678 148.516 205.94 150.882 207.756 151.192C209.573 151.502 214.926 150.47 214.926 152.119C214.926 153.767 214.616 159.324 215.852 162.103C217.088 164.882 218.631 165.808 222.646 166.735C226.661 167.661 227.37 167.351 230.669 170.749C233.969 174.148 252.392 190.511 254.759 191.335C257.126 192.159 258.154 193.6 261.038 188.349C263.923 183.098 265.98 179.086 266.184 170.852C266.388 162.617 265.462 154.693 265.462 154.693L256.302 156.341C256.308 156.341 257.129 165.604 256.1 173.426Z" fill="#EAC2AB"/>
<defs>
<linearGradient id="paint0_linear" x1="198.335" y1="246.501" x2="183.514" y2="192.945" gradientUnits="userSpaceOnUse">
<stop stop-color="#A7ADFF"/>
<stop offset="1" stop-color="#E3E5FC"/>
</linearGradient>
<linearGradient id="paint1_linear" x1="260.264" y1="175.041" x2="239.633" y2="100.488" gradientUnits="userSpaceOnUse">
<stop stop-color="#A7ADFF"/>
<stop offset="1" stop-color="#E3E5FC"/>
</linearGradient>
</defs>
</svg>
